PathFileType	4	(X/Y/Z)	c:/Users/goper/Files/vsCode/490R/osim_files/A01/A01_Fast_04.trc
DataRate	CameraRate	NumFrames	NumMarkers	Units                	OrigDataRate	OrigDataStartFrame	OrigNumFrames
120.00	120.00	10	36	mm	120.0	707	1131
                Frame#	Time	Mobility_markerset:LPSIS			Mobility_markerset:LASIS			Mobility_markerset:LTH1			Mobility_markerset:LTH2			Mobility_markerset:LTH3			Mobility_markerset:LTH4			Mobility_markerset:LLFE			Mobility_markerset:LMFE			Mobility_markerset:LSH1			Mobility_markerset:LSH2			Mobility_markerset:LSH3			Mobility_markerset:LSH4			Mobility_markerset:LLMAL			Mobility_markerset:LMMAL			Mobility_markerset:LCAL			Mobility_markerset:LMTP5			Mobility_markerset:LTOE			Mobility_markerset:LMTP1			Mobility_markerset:RPSIS			Mobility_markerset:RASIS			Mobility_markerset:RTH1			Mobility_markerset:RTH2			Mobility_markerset:RTH3			Mobility_markerset:RTH4			Mobility_markerset:RLFE			Mobility_markerset:RMFE			Mobility_markerset:RSH1			Mobility_markerset:RSH2			Mobility_markerset:RSH3			Mobility_markerset:RSH4			Mobility_markerset:RLMAL			Mobility_markerset:RMMAL			Mobility_markerset:RCAL			Mobility_markerset:RMTP1			Mobility_markerset:RTOE			Mobility_markerset:RMTP5		
		X1	Y1	Z1	X2	Y2	Z2	X3	Y3	Z3	X4	Y4	Z4	X5	Y5	Z5	X6	Y6	Z6	X7	Y7	Z7	X8	Y8	Z8	X9	Y9	Z9	X10	Y10	Z10	X11	Y11	Z11	X12	Y12	Z12	X13	Y13	Z13	X14	Y14	Z14	X15	Y15	Z15	X16	Y16	Z16	X17	Y17	Z17	X18	Y18	Z18	X19	Y19	Z19	X20	Y20	Z20	X21	Y21	Z21	X22	Y22	Z22	X23	Y23	Z23	X24	Y24	Z24	X25	Y25	Z25	X26	Y26	Z26	X27	Y27	Z27	X28	Y28	Z28	X29	Y29	Z29	X30	Y30	Z30	X31	Y31	Z31	X32	Y32	Z32	X33	Y33	Z33	X34	Y34	Z34	X35	Y35	Z35	X36	Y36	Z36

707	5.88333	0.00000	0.00000	0.00000	-2807.34155	998.29584	508.59622	-2635.44824	681.91211	538.29358	-2634.58325	634.91302	529.25403	-2695.00928	673.72290	542.60773	-2686.12817	629.78882	529.25806	-2647.90332	512.45850	495.64233	-2664.01685	516.87408	357.99023	-2542.32251	381.67743	481.69623	-2522.32520	339.32565	483.88580	-2595.80640	350.12552	477.55695	-2567.80396	313.62375	478.56976	-2426.11255	110.79919	460.65375	-2410.56396	112.72110	371.43884	-2338.84912	102.06804	422.53198	-2551.15845	35.96976	466.18185	-2572.71997	56.72881	396.12262	0.00000	0.00000	0.00000	-2600.17358	1021.96851	271.82339	-2838.52100	973.26404	249.34970	-2827.39233	661.44189	143.27792	-2853.24829	625.39117	148.82140	-2882.14600	690.90643	151.81583	-2898.70801	650.91815	154.79192	-2952.32471	523.81750	193.21881	-2929.98242	523.41205	321.45871	-2942.46948	306.83365	173.34845	-2962.32617	266.86053	171.06522	-2999.34814	329.97073	169.14532	-3010.13989	285.09860	168.74966	-3063.72339	108.74608	191.04141	-3076.20581	137.72430	275.21390	-3032.89648	57.53439	241.84367	-3219.08521	149.00056	276.19897	-3238.36377	181.06500	230.55931	-3210.88599	120.24458	166.10814
708	5.89167	0.00000	0.00000	0.00000	-2819.53027	995.71185	507.07986	-2646.15698	679.78748	536.84796	-2644.95996	632.82050	527.80579	-2705.69360	671.20740	541.07910	-2696.44653	627.30902	527.73596	-2657.05029	510.23322	494.51456	-2673.38501	514.21021	356.85983	-2549.04004	381.57593	480.76004	-2529.94336	340.40076	485.69266	-2602.03589	348.93094	476.70624	-2573.36890	312.94385	477.84067	-2427.80884	112.74603	460.41110	-2412.34619	114.43201	371.02264	-2340.03931	105.73679	422.19803	-2551.32837	35.82219	466.13345	-2573.13477	56.58027	396.08160	0.00000	0.00000	0.00000	-2612.66455	1020.55640	270.92361	-2851.31519	972.76819	247.84695	-2842.51636	662.05475	142.31876	-2867.78662	626.27649	147.52409	-2896.59351	691.91901	150.54262	-2913.61914	652.28058	154.19704	-2966.86768	523.27014	194.13734	-2946.35083	524.57935	319.55588	-2950.97656	305.27863	173.17685	-2971.44067	264.57050	171.09825	-3009.28687	327.04330	169.40605	-3019.29663	282.29062	169.17648	-3069.72144	104.80818	191.80313	-3081.59399	133.45247	276.07581	-3037.48584	53.88853	242.15315	-3224.40894	142.90781	279.01328	-3244.81250	174.53290	232.74623	-3217.80786	115.00660	168.78978
709	5.90000	0.00000	0.00000	0.00000	-2832.17261	993.06665	505.27530	-2657.63965	677.46570	535.53943	-2655.86987	630.55969	526.25732	-2716.80981	668.57831	539.50403	-2707.25488	624.77179	526.11981	-2666.68506	507.93167	493.28604	-2683.16846	511.40018	355.75739	-2556.36890	381.51712	479.83463	-2536.37158	340.74808	484.79932	-2608.67212	347.74185	475.88934	-2579.25000	312.41663	477.14462	-2429.66675	114.89196	460.09967	-2414.98828	117.67780	370.97876	-2341.95264	109.52920	421.71591	-2551.57886	35.64532	466.12128	-2573.63428	56.43192	396.06036	0.00000	0.00000	0.00000	-2625.21533	1019.08313	270.30042	-2864.42896	972.72937	245.98903	-2857.12183	662.27710	141.33098	-2883.00562	626.71234	146.64508	-2910.87427	692.82666	149.37277	-2927.65186	652.56940	152.53125	-2979.84497	522.19293	194.45447	-2962.37964	525.62054	317.40900	-2959.87500	303.24802	173.01280	-2979.59546	262.18240	171.22115	-3018.63916	323.80698	169.66536	-3028.55762	279.44653	169.49072	-3074.81836	101.01588	192.58528	-3086.04126	129.09949	277.27347	-3039.93164	52.55890	242.20573	-3228.12378	135.42845	282.08698	-3249.68481	167.64459	237.25034	-3223.07544	108.54966	171.91652
710	5.90833	0.00000	0.00000	0.00000	-2845.15430	990.20557	503.25446	-2669.27588	675.03827	534.09357	-2667.01270	628.21979	524.69293	-2728.40527	665.85284	537.91492	-2718.68433	622.08307	524.46320	-2677.16235	505.69336	492.26511	0.00000	0.00000	0.00000	-2564.13257	381.28598	479.01981	-2542.95630	341.02139	483.87506	-2615.66748	346.54938	475.12720	-2585.44800	311.73279	476.46518	-2431.93164	117.30193	459.82169	-2417.32153	120.25907	370.55679	-2344.17773	113.67373	421.21848	-2551.80420	35.50828	466.08853	-2574.12769	56.28898	396.03683	0.00000	0.00000	0.00000	-2637.80029	1017.55621	269.87143	-2878.62476	973.37952	243.84062	-2871.31421	662.01929	140.73772	-2898.32544	626.68292	146.54590	-2924.91309	693.51489	148.56187	-2942.78906	653.25482	151.71066	-2992.29517	520.50787	193.95862	-2977.85522	526.51288	315.22772	-2968.38232	301.02826	172.75188	-2986.70166	259.77261	171.58994	-3027.60229	320.46539	170.19687	-3037.41479	276.49576	169.89064	-3079.02417	98.59789	193.51732	-3090.40918	125.49143	278.55850	-3042.21851	51.00110	242.85916	-3231.81372	127.89273	285.41165	-3254.50391	159.60406	241.59789	-3227.60815	101.38416	175.47139
711	5.91667	0.00000	0.00000	0.00000	-2858.47241	987.44055	501.10794	-2681.26709	672.49677	532.31116	-2679.15186	625.52368	523.07263	-2740.44556	663.03461	536.30896	-2730.37402	619.28699	522.88794	-2688.10303	503.08188	491.38846	0.00000	0.00000	0.00000	-2572.29224	381.17233	478.30658	-2550.46191	341.54147	483.18018	-2623.08667	345.21146	474.41626	-2592.24072	311.14877	475.83301	-2434.39062	119.96078	459.52243	-2420.00635	123.18932	370.25858	-2346.72998	118.33714	420.78281	-2552.00122	35.34029	466.06555	-2574.65576	56.07871	396.05829	0.00000	0.00000	0.00000	-2650.57153	1015.86005	269.64789	-2890.99976	973.37286	241.45560	-2885.02368	661.21417	140.46048	-2913.46387	625.93610	146.65497	-2938.18091	693.10706	147.61928	-2956.11670	653.06439	151.48438	-3003.35449	518.01013	192.80513	-2992.57275	526.93158	313.18866	-2977.62598	298.46854	172.62006	-2994.45288	256.70148	171.48569	-3036.32056	317.24487	171.43541	-3045.66553	273.13086	170.23618	-3083.25366	95.37185	194.77164	-3093.85034	120.94067	279.90240	-3044.55371	50.40296	242.95715	-3235.73169	119.78226	289.01416	-3259.86475	151.34766	245.86005	-3232.11353	94.21706	179.38614
712	5.92500	0.00000	0.00000	0.00000	-2872.07202	984.52545	498.79153	-2693.64771	669.75739	530.98273	-2691.22070	622.89679	521.77185	-2752.94800	660.18121	534.73120	-2742.81909	616.49347	521.34357	-2699.58179	500.36765	490.59421	0.00000	0.00000	0.00000	-2581.19971	381.07327	477.72946	-2558.30127	341.93530	482.51202	-2631.03687	343.96277	473.87827	-2599.34985	310.54474	475.30743	-2437.22656	123.10514	459.18802	-2423.10962	126.55547	369.81326	-2349.56348	123.57129	420.17780	-2552.31885	35.34916	466.04977	-2575.23438	55.92346	396.08380	0.00000	0.00000	0.00000	-2663.12500	1014.27771	269.30884	-2904.32202	973.73303	239.03276	-2897.85840	659.84924	140.08365	-2925.53076	624.91559	146.79860	-2951.09595	691.88470	147.00563	-2970.88086	653.35974	151.96689	-3013.80103	515.08026	191.56207	-3006.10986	526.46692	311.12436	-2986.31030	296.08948	172.44781	-3002.68018	254.01932	171.50909	-3045.25879	314.06583	172.30467	-3054.15625	269.82599	171.17929	-3088.81592	91.37898	195.61632	-3097.92358	116.36985	280.95840	-3047.70850	50.53438	243.46877	-3240.04663	112.36758	292.25867	-3265.91895	144.34184	250.42506	-3236.55054	87.67939	182.84047
713	5.93333	0.00000	0.00000	0.00000	-2886.06714	981.70807	496.32413	-2706.84033	667.02911	529.67371	-2704.13525	620.12091	520.41986	-2765.77051	657.13269	533.08923	-2755.37646	613.50024	519.73267	-2711.91138	497.52786	490.18005	-2725.45996	497.48172	352.78833	-2590.48438	381.10526	477.24048	-2566.53052	342.42593	481.93967	-2639.50513	342.81747	473.37436	-2606.91895	310.00232	474.92682	-2440.47266	126.64197	458.69128	-2426.59253	130.37534	369.35934	-2352.88770	129.33795	419.46799	-2552.58008	35.34544	465.99561	-2575.81982	55.80256	396.04868	0.00000	0.00000	0.00000	-2675.90039	1012.50165	269.02127	-2917.62573	974.08972	236.43088	-2909.80127	657.96313	139.43843	-2937.10620	622.99078	146.77042	-2963.27026	689.66425	146.34209	-2980.84033	649.76276	151.53725	-3023.88086	512.12354	190.56415	-3017.84839	524.86017	308.71945	-2994.96118	294.05591	172.01740	-3011.70752	251.82597	171.24852	-3054.84839	311.37506	172.93544	-3063.41895	267.09125	171.86411	-3095.19775	88.29182	196.37030	0.00000	0.00000	0.00000	-3051.73340	51.28473	244.51883	-3244.81543	103.62417	294.57550	-3271.80640	136.09860	253.51357	-3241.32324	80.99574	184.96327
714	5.94167	0.00000	0.00000	0.00000	-2900.02979	978.94263	493.62418	-2720.46997	664.21875	528.38824	-2717.79736	617.31073	519.25238	-2779.49634	654.33112	531.73279	-2769.17969	610.73059	518.61395	-2724.84424	494.49905	489.87952	-2738.52710	494.42148	352.74249	-2600.65039	381.23932	476.82211	-2575.76465	343.31018	481.56561	-2648.21289	342.04990	472.86026	-2614.77881	310.67596	474.40671	-2443.88867	130.62616	458.18253	-2430.70996	134.79863	368.97748	-2356.30737	136.07552	418.54916	-2552.79004	35.38850	465.95230	-2576.42651	55.79378	396.00436	0.00000	0.00000	0.00000	-2688.26440	1010.98389	268.42334	-2930.66284	974.29736	233.98180	-2921.09131	655.95453	138.61647	-2947.38062	620.44324	146.15286	-2974.54126	686.90179	145.72775	-2991.96753	646.84308	151.18294	-3033.93896	509.21109	189.36615	-3027.64648	521.73462	306.98438	-3005.03735	292.60239	171.31592	-3021.76440	250.36679	170.80168	-3064.96753	309.58044	173.51546	-3073.43799	265.24963	172.38373	-3100.93848	86.94305	196.70348	0.00000	0.00000	0.00000	-3054.90942	52.76021	244.66606	-3250.73706	94.46457	295.88916	-3279.98389	126.13651	254.93828	-3246.35815	72.60627	185.98122
715	5.95000	0.00000	0.00000	0.00000	-2914.09497	976.28204	490.77463	-2734.36816	661.47357	527.01044	-2731.88306	614.56726	518.17218	-2793.60913	651.58575	530.34827	-2783.28833	607.94647	517.43121	-2738.61597	491.52454	489.78250	-2752.49976	491.06894	352.71375	-2611.38257	381.62106	476.49387	-2585.53394	344.41830	481.16620	-2658.10571	341.20721	472.58597	-2623.60864	310.62408	474.06827	-2448.10938	135.29745	457.63019	-2435.54810	139.89037	368.50827	-2360.90405	143.57637	417.65460	-2552.94531	35.63081	466.01871	-2577.13745	55.86780	395.93274	0.00000	0.00000	0.00000	-2700.31055	1009.47888	267.69846	-2944.15430	974.83075	231.65532	-2930.50024	653.96088	137.42738	-2956.24683	618.15454	144.85347	-2984.92285	683.99524	144.11914	-3001.38232	643.94086	149.85912	-3043.78784	507.00974	187.64760	-3036.16138	518.36664	307.95886	-3014.43018	291.30231	171.88045	-3031.32104	250.08795	169.79819	-3075.18848	308.96063	173.47198	-3083.26562	264.46918	172.33141	-3105.38574	86.48075	196.47797	0.00000	0.00000	0.00000	-3057.52026	54.45103	244.35052	-3255.27051	85.38345	295.45316	-3287.70483	114.63102	254.55640	-3250.26685	63.93387	185.99037
716	5.95833	0.00000	0.00000	0.00000	-2928.07861	973.78503	487.88443	-2749.20288	658.81683	525.95166	-2746.84717	611.85706	517.38422	-2808.46265	649.23480	529.21411	-2798.18726	605.32990	516.46472	-2753.50562	488.60001	489.83740	-2767.70142	487.82214	352.85287	-2623.26367	382.24350	476.23395	-2595.79663	345.13901	479.76660	-2668.71851	340.48727	472.56778	-2633.45068	310.99490	473.77289	-2452.81909	139.88051	456.22992	-2441.16260	145.74133	367.95602	-2366.33447	151.94620	416.52383	-2553.22485	36.27862	466.03781	-2577.97217	55.99026	395.83948	0.00000	0.00000	0.00000	-2712.19409	1007.95667	266.86053	-2956.28101	974.76886	229.36333	-2937.47290	652.84778	136.10518	-2965.02808	616.77411	143.17570	-2994.11426	681.91272	141.18242	-3009.64404	642.13409	146.98766	-3053.94604	506.65497	185.64430	-3043.18774	516.00122	309.59589	0.00000	0.00000	0.00000	-3040.31152	251.19415	168.30879	-3085.23242	309.22076	172.64177	-3092.37769	264.58209	171.35136	-3108.90649	86.01942	196.10802	-3121.91162	108.29618	282.08713	-3059.41553	56.31818	243.74350	-3259.21021	78.39435	295.17480	-3293.35107	105.47243	254.28593	-3253.00244	56.76282	185.55650
